<svg xmlns="http://www.w3.org/2000/svg" viewBox="0 0 336 60"><path fill="#fff" shape-rendering="crispEdges" d="M12.11,57.98H1V46.79H12.11Zm23.32-.01H24.32V46.78H35.43Zm23.32,0H47.64V46.78H58.75ZM47.09,24.4V35.59H35.98V24.4ZM35.43,2.01V13.2H24.32V2.01ZM23.77,24.4V35.59H12.66V24.4Z"/><path fill="#fff" shape-rendering="geometricPrecision" d="M127.86,41.91H105.07l-5.05,16.07H90.69L109.12,2.02h14.93l18.51,55.96h-9.57Zm-20.14-8.38h17.42l-7.08-22.34h-3.34Zm79.17-23.2H169.16V57.98h-9.33V10.33H142.02V2.02h44.87Zm38.77,6.42c-1.17-5.01-4.74-7.52-11.66-7.52-5.84,0-10.66,2.43-10.66,7.6,0,4.63,3.81,6.11,8.09,6.9,1.71.39,8.4,1.64,10.42,2.04,8.48,1.88,14.54,6.35,14.54,16.06,0,9.1-7.08,17.17-21.7,17.17-13.45,0-22-7.06-23.01-17.4h9.48c1.25,6.9,7,9.17,13.92,9.17s11.9-2.98,11.9-8.55c0-5.25-3.42-7.28-8.4-8.3L207.77,31.8c-8.63-1.64-13.84-6.35-13.84-14.73C193.93,8.13,201.09,1,214.15,1c11.82,0,19.75,6.19,21,15.75Zm39.47,9.17,13.29-23.9h10.04L268.7,37.37V57.98h-9.33V37.37L239.62,2.02h10.03l13.3,23.9Zm59.14-9.17c-1.17-5.01-4.75-7.52-11.67-7.52-5.83,0-10.65,2.43-10.65,7.6,0,4.63,3.81,6.11,8.09,6.9,1.71.39,8.4,1.64,10.42,2.04C328.93,27.65,335,32.12,335,41.83c0,9.1-7.08,17.17-21.7,17.17-13.45,0-22-7.06-23.02-17.4h9.49c1.25,6.9,7,9.17,13.92,9.17s11.9-2.98,11.9-8.55c0-5.25-3.42-7.28-8.4-8.3L306.38,31.8c-8.63-1.64-13.84-6.35-13.84-14.73C292.54,8.13,299.69,1,312.76,1c11.82,0,19.75,6.19,20.99,15.75Z"/></svg>